# xmcd
#
# Track frame offsets:
#	150
#	15029
#	31079
#	45130
#	60974
#	79477
#	93445
#	110928
#	127747
#	143898
#	157475
#	174324
#	190209
#	204419
#
# Disc length: 2938 seconds
#
# Revision: 1
# Processed by: cddbd v1.5.2PL0 Copyright (c) Steve Scherf et al.
# Submitted via: audiograbber 1.83.01
#
DISCID=ac0b780e
DTITLE=Various Artist - SD074
DYEAR=1900
DGENRE=Country
TTITLE0=Jo Dee Messina - That's The Way
TTITLE1=Toby Keith - Country Comes To Town
TTITLE2=Trisha Yearwood - Where Are You Now
TTITLE3=Collin Raye and Bobbie Eakes - Loving This Way
TTITLE4=Billy Gillman - One Voice
TTITLE5=Diamond Rio - Stuff
TTITLE6=Phil Vassar - Just Another Day In Paradise
TTITLE7=Steve Holy - Blue Moon
TTITLE8=Patty Loveless - That's The Kind Of Mood I'm In
TTITLE9=Aaron Tippin - Kiss This
TTITLE10=Vince Gill - Feels Like This
TTITLE11=Clint Black - Love She Can't Live Without
TTITLE12=Tracy Lawrence - Lonely
TTITLE13=The Warren Brothers and Sara Evans - That's The Beat Of A Heart
EXTD=
EXTT0=
EXTT1=
EXTT2=
EXTT3=
EXTT4=
EXTT5=
EXTT6=
EXTT7=
EXTT8=
EXTT9=
EXTT10=
EXTT11=
EXTT12=
EXTT13=
PLAYORDER=
